Coordinates
version=1
nRows=43
nColumns=12
inDegrees=yes

Units are S.I. units (second, meters, Newtons, ...)
Angles are in degrees

endheader
time	SC_y	SC_z	SC_x	AC_y	AC_z	AC_x	GH_y	GH_z	GH_yy	EL_x	PS_y
       0.0              -44.07          9.413          38.11          58.79         -13.01         -3.228          86.51          30.86          134.7          57.11          117.4
   0.03609              -44.08          9.414          38.11          58.79          -13.0          -3.23          86.49          30.85          134.7           57.1          117.4
   0.07217              -44.08          9.415           38.1          58.79          -13.0         -3.232          86.46          30.85          134.7           57.1          117.4
    0.1083              -44.08          9.416           38.1          58.78          -13.0         -3.234          86.43          30.84          134.7          57.09          117.3
    0.1443              -44.08          9.417          38.09          58.78          -13.0         -3.237          86.39          30.84          134.7          57.08          117.3
    0.1804              -44.08          9.418          38.09          58.77          -13.0         -3.239          86.36          30.83          134.7          57.08          117.3
    0.2165              -44.08          9.419          38.08          58.77          -13.0         -3.242          86.32          30.82          134.7          57.07          117.3
    0.2526              -44.09          9.421          38.07          58.77         -12.99         -3.244          86.28          30.82          134.8          57.06          117.3
    0.2887              -44.09          9.422          38.06          58.76         -12.99         -3.247          86.24          30.81          134.8          57.05          117.3
    0.3248              -44.09          9.424          38.05          58.76         -12.99          -3.25           86.2           30.8          134.8          57.04          117.3
    0.3609              -44.09          9.425          38.04          58.75         -12.99         -3.254          86.15          30.79          134.8          57.03          117.2
     0.397               -44.1          9.427          38.03          58.74         -12.98         -3.258          86.09          30.78          134.8          57.02          117.2
     0.433               -44.1          9.429          38.02          58.74         -12.98         -3.261          86.04          30.77          134.8          57.01          117.2
    0.4691               -44.1          9.431          38.01          58.73         -12.98         -3.266          85.98          30.76          134.8          56.99          117.2
    0.5052              -44.11          9.434           38.0          58.72         -12.97          -3.27          85.91          30.75          134.8          56.98          117.1
    0.5413              -44.11          9.436          37.98          58.71         -12.97         -3.275          85.84          30.74          134.8          56.96          117.1
    0.5774              -44.12          9.439          37.97           58.7         -12.97         -3.281          85.76          30.72          134.9          56.94          117.1
    0.6135              -44.12          9.442          37.95          58.69         -12.96         -3.287          85.68          30.71          134.9          56.93          117.0
    0.6496              -44.13          9.445          37.93          58.68         -12.96         -3.293          85.58          30.69          134.9           56.9          117.0
    0.6857              -44.13          9.448          37.91          58.67         -12.95           -3.3          85.48          30.67          134.9          56.88          117.0
    0.7217              -44.14          9.452          37.89          58.66         -12.95         -3.308          85.37          30.65          134.9          56.86          116.9
    0.7578              -44.15          9.456          37.87          58.64         -12.94         -3.317          85.25          30.63          135.0          56.83          116.9
    0.7939              -44.15          9.461          37.84          58.63         -12.93         -3.326          85.11           30.6          135.0           56.8          116.8
      0.83              -44.16          9.466          37.81          58.61         -12.92         -3.337          84.96          30.57          135.0          56.77          116.7
    0.8661              -44.17          9.472          37.78          58.59         -12.92         -3.348           84.8          30.54          135.1          56.73          116.7
    0.9022              -44.18          9.478          37.75          58.57         -12.91         -3.362          84.61          30.51          135.1          56.69          116.6
    0.9383              -44.19          9.485           37.7          58.54          -12.9         -3.376           84.4          30.47          135.1          56.64          116.5
    0.9743              -44.21          9.493          37.66          58.52         -12.88         -3.393          84.17          30.43          135.2          56.59          116.4
      1.01              -44.22          9.502          37.61          58.49         -12.87         -3.411           83.9          30.38          135.2          56.53          116.3
     1.047              -44.24          9.513          37.55          58.45         -12.85         -3.432           83.6          30.32          135.3          56.47          116.2
     1.083              -44.26          9.524          37.48          58.41         -12.84         -3.456          83.26          30.26          135.4          56.39          116.0
     1.119              -44.28          9.538          37.41          58.36         -12.81         -3.484          82.86          30.19          135.5           56.3          115.9
     1.155              -44.31          9.553          37.32          58.31         -12.79         -3.516          82.41           30.1          135.6           56.2          115.7
     1.191              -44.34          9.571          37.22          58.25         -12.76         -3.553          81.88          30.01          135.7          56.08          115.5
     1.227              -44.37          9.593           37.1          58.18         -12.73         -3.596          81.26          29.89          135.8          55.95          115.2
     1.263              -44.41          9.618          36.95          58.09         -12.69         -3.647          80.53          29.76          135.9          55.78          114.9
     1.299              -44.46          9.647          36.79          57.99         -12.65         -3.708          79.67           29.6          136.1          55.59          114.6
     1.335              -44.52          9.683          36.58          57.87         -12.59         -3.781          78.63          29.41          136.3          55.36          114.1
     1.371              -44.59          9.726          36.34          57.72         -12.53         -3.869          77.37          29.18          136.6          55.08          113.6
     1.407              -44.68          9.778          36.04          57.54         -12.45         -3.976          75.84          28.89          136.9          54.74          113.0
     1.443              -44.79          9.843          35.67          57.32         -12.35         -4.109          73.94          28.55          137.3          54.32          112.2
      1.48              -44.92          9.924          35.22          57.04         -12.22         -4.274          71.58          28.11          137.8           53.8          111.3
     1.516              -45.09          10.03          34.64          56.69         -12.07         -4.483           68.6          27.56          138.4          53.14          110.0
